# AST/ASF file generated using VICON BodyLanguage
# -----------------------------------------------
:version 1.10
:name VICON
:units
  mass 1.0
  length 0.45
  angle deg
:documentation
   .ast/.asf automatically generated from VICON data using
   VICON BodyBuilder and BodyLanguage model FoxedUp or BRILLIANT.MOD
:root
   order TX TY TZ RX RY RZ
   axis XYZ
   position 0 0 0  
   orientation 0 0 0 
:bonedata
  begin
     id 1 
     name lhipjoint
     direction 0.693937 -0.600361 0.397515 
     length 2.37164 
     axis 0 0 0  XYZ
  end
  begin
     id 2 
     name lfemur
     direction 0.34202 -0.939693 0  
     length 6.18497  
     axis 0 0 20  XYZ
    dof rx ry rz
    limits (-160.0 20.0)
           (-70.0 70.0)
           (-60.0 70.0)
  end
  begin
     id 3 
     name ltibia
     direction 0.34202 -0.939693 0   
     length 6.91601   
     axis 0 0 20   XYZ
    dof rx
    limits (-10.0 170.0)
  end
  begin
     id 4 
     name lfoot
     direction 0.0978718 -0.2689 0.958182   
     length 1.81453   
     axis -90 7.62852e-016 20   XYZ
    dof rx rz
    limits (-45.0 90.0)
           (-70.0 20.0)
  end
  begin
     id 5 
     name ltoes
     direction 1.53569e-011 -4.21951e-011 1   
     length 0.912052   
     axis -90 7.62852e-016 20   XYZ
    dof rx
    limits (-90.0 20.0)
  end
  begin
     id 6 
     name rhipjoint
     direction -0.643996 -0.637876 0.422354   
     length 2.23216  
     axis 0 0 0  XYZ 
  end
  begin
     id 7 
     name rfemur
     direction -0.34202 -0.939693 0   
     length 6.15404   
     axis 0 0 -20   XYZ
    dof rx ry rz
    limits (-160.0 20.0)
           (-70.0 70.0)
           (-70.0 60.0)
  end
  begin
     id 8 
     name rtibia
     direction -0.34202 -0.939693 0   
     length 6.86744   
     axis 0 0 -20   XYZ
    dof rx
    limits (-10.0 170.0)
 end
 begin
     id 9 
     name rfoot
     direction -0.118701 -0.326127 0.937844   
     length 1.9243  
     axis -90 -7.62852e-016 -20   XYZ
    dof rx rz
    limits (-45.0 90.0)
           (-20.0 70.0)
  end
  begin
     id 10 
     name rtoes
     direction -1.5356e-011 -4.2181e-011 1   
     length 0.958865   
     axis -90 -7.62852e-016 -20   XYZ
    dof rx
    limits (-90.0 20.0)
  end
  begin
     id 11 
     name lowerback
     direction 0.0310826 0.968686 -0.246334   
     length 2.00021   
     axis 0 0 0   XYZ
    dof rx ry rz
    limits (-20.0 45.0)
           (-30.0 30.0)
           (-30.0 30.0)
  end
  begin
     id 12 
     name upperback
     direction -0.0152834 0.999474 -0.0286152   
     length 2.03728   
     axis 0 0 0   XYZ
    dof rx ry rz
    limits (-20.0 45.0)
           (-30.0 30.0)
           (-30.0 30.0)
  end
  begin
     id 13 
     name thorax
     direction -0.0323701 0.996236 0.0804149   
     length 2.16   
     axis 0 0 0   XYZ
    dof rx ry rz
    limits (-20.0 45.0)
           (-30.0 30.0)
           (-30.0 30.0)
  end
  begin
     id 14 
     name lowerneck
     direction 0.0307935 0.982251 0.185027   
     length 1.43558   
     axis 0 0 0   XYZ
    dof rx ry rz
    limits (-20.0 45.0)
           (-30.0 30.0)
           (-30.0 30.0)
  end
  begin
     id 15 
     name upperneck
     direction -0.0927153 0.994775 0.0427454   
     length 1.44603   
     axis 0 0 0   XYZ
    dof rx ry rz
    limits (-20.0 45.0)
           (-30.0 30.0)
           (-30.0 30.0)
  end
  begin
     id 16
     name head
     direction -0.0341265 0.999406 -0.00472033  
     length 1.45931  
     axis 0 0 0   XYZ
    dof rx ry rz
    limits (-20.0 45.0)
           (-30.0 30.0)
           (-30.0 30.0)
  end
  begin
     id 17 
     name lclavicle
     direction 0.820755 0.555306 -0.134151  
     length 2.66075  
     axis 0 0 0   XYZ
    dof ry rz
    limits (-20.0 10.0)
           (0.0 20.0)
  end
  begin
     id 18 
     name lhumerus
     direction 1 -4.48971e-011 5.24853e-027   
     length 5.0546   
     axis -180 -30 -90   XYZ
    dof rx ry rz
    limits (-60.0 90.0)
           (-90.0 90.0)
           (-90.0 90.0)
  end
  begin
     id 19
     name lradius
     direction 1 -4.48971e-011 2.76575e-028   
     length 3.39013   
     axis -180 -30 -90   XYZ
    dof rx
    limits (-10.0 170.0)
  end
  begin
     id 20
     name lwrist
     direction 1 -4.48939e-011 -2.27826e-027   
     length 1.69507   
     axis 2.17013e-015 90 90   XYZ
    dof ry
    limits (-180.0 0.0)
 end
  begin
     id 21 
     name lhand
     direction 1 -4.49009e-011 -4.55652e-027   
     length 0.572425   
     axis 2.90745e-015 90 90   XYZ
    dof rx rz
    limits (-90.0 90.0)
           (-45.0 45.0)
  end
  begin
     id 22 
     name lfingers
     direction 1 -4.48955e-011 -9.11303e-027   
     length 0.461504   
     axis 5.81489e-015 90 90   XYZ
    dof rx
    limits (0.0 90.0)
  end
  begin
     id 23
     name lthumb
     direction 0.707107 -6.34929e-011 0.707107   
     length 0.66263   
     axis -90 45 2.85299e-015   XYZ
    dof rx rz
    limits (-45.0 45.0)
           (-45.0 45.0)
  end
  begin
     id 24 
     name rclavicle
     direction -0.754477 0.632921 -0.173712   
     length 2.73081  
     axis 0 0 0   XYZ 
    dof ry rz
    limits (-10.0 20.0)
           (-20.0 0.0)
  end
  begin
     id 25 
     name rhumerus
     direction -1 -4.48969e-011 5.1496e-027  
     length 5.0701   
     axis -180 30 90   XYZ
    dof rx ry rz
    limits (-90.0 60.0)
           (-90.0 90.0)
           (-90.0 90.0)
  end
  begin
     id 26 
     name rradius
     direction -1 -4.48967e-011 -7.15624e-028   
     length 3.14957   
     axis -180 30 90   XYZ
    dof rx
    limits (-10.0 170.0)
  end
  begin
     id 27 
     name rwrist
     direction -1 -4.48938e-011 -2.27826e-027   
     length 1.57479   
     axis 2.17013e-015 -90 -90   XYZ
    dof ry
    limits (-180.0 0.0)
  end
  begin
     id 28
     name rhand
     direction -1 -4.49008e-011 -4.55652e-027   
     length 0.718191   
     axis 2.90745e-015 -90 -90   XYZ
    dof rx rz
    limits (-90.0 90.0)
           (-45.0 45.0)
  end
  begin
     id 29
     name rfingers
     direction -1 -4.48953e-011 -9.11303e-027   
     length 0.579024   
     axis 5.81489e-015 -90 -90   XYZ
    dof rx
    limits (0.0 90.0)
  end
  begin
     id 30
     name rthumb
     direction -0.707107 -6.34937e-011 0.707107   
     length 0.831366   
     axis -90 -45 -2.85299e-015   XYZ
    dof rx rz
    limits (-45.0 45.0)
           (-45.0 45.0)
  end
:hierarchy
  begin
    root lhipjoint rhipjoint lowerback
    lhipjoint lfemur
    lfemur ltibia
    ltibia lfoot
    lfoot ltoes
    rhipjoint rfemur
    rfemur rtibia
    rtibia rfoot
    rfoot rtoes
    lowerback upperback
    upperback thorax
    thorax lowerneck lclavicle rclavicle
    lowerneck upperneck
    upperneck head
    lclavicle lhumerus
    lhumerus lradius
    lradius lwrist
    lwrist lhand lthumb
    lhand lfingers
    rclavicle rhumerus
    rhumerus rradius
    rradius rwrist
    rwrist rhand rthumb
    rhand rfingers
  end

#!OML:ASF H:\Male1\Project 1\Capture day 1\Session 1\Male1.ASF
:FULLY-SPECIFIED
:DEGREES
68
root 23.5123 14.9426 0.713568 283.187 -85.4183 -285.752
lowerback 4.56338 0.72408 -5.81966
upperback 5.40326 0.6966 -2.00532
thorax 2.98474 0.110256 1.16776
lowerneck -9.04199 2.2075 5.74764
upperneck 23.2919 1.59893 -0.300531
head 8.82737 1.03321 -0.938076
rclavicle 7.05686e-015 1.59028e-014
rhumerus -30.3387 -1.89151 -88.839
rradius 32.3335
rwrist -13.4832
rhand -16.1247 1.32563
rfingers 7.12502
rthumb 10.0798 -28.413
lclavicle 7.05686e-015 1.59028e-014
lhumerus -23.3975 -11.6294 87.9151
lradius 44.7083
lwrist 4.95953
lhand -21.2583 12.8482
lfingers 7.12502
lthumb 5.12492 42.7662
rfemur -27.7322 16.5347 18.978
rtibia 33.8879
rfoot -27.2119 -26.8893
rtoes -16.6886
lfemur 13.1696 -4.81277 -32.8234
ltibia 24.7324
lfoot -18.86 9.45394
ltoes -13.9409
69
root 23.265 14.9451 0.709252 283.557 -85.9453 -286.087
lowerback 4.56813 0.691735 -4.96623
upperback 5.32231 0.67653 -1.77643
thorax 2.89845 0.133294 0.929974
lowerneck -9.06123 2.23154 5.71642
upperneck 23.3847 1.67439 -0.472759
head 8.86537 1.04923 -0.983662
rclavicle -1.78906e-015 -5.1684e-015
rhumerus -30.4598 -2.09756 -88.6397
rradius 31.8653
rwrist -12.9876
rhand -16.0207 1.20247
rfingers 7.12502
rthumb 10.1802 -28.5312
lclavicle -1.78906e-015 -5.1684e-015
lhumerus -23.754 -10.5724 87.8196
lradius 43.2775
lwrist 4.15587
lhand -20.9312 13.4417
lfingers 7.12502
lthumb 5.44078 43.3519
rfemur -26.9436 15.6822 19.9939
rtibia 33.9792
rfoot -25.2153 -26.1241
rtoes -17.1262
lfemur 11.2244 -3.56908 -31.5923
ltibia 29.702
lfoot -17.3703 7.8371
ltoes -16.7803
70
root 23.0202 14.9542 0.704211 283.329 -86.67 -285.763
lowerback 4.57604 0.690119 -3.94184
upperback 5.21934 0.701583 -1.49803
thorax 2.78705 0.183656 0.645669
lowerneck -9.07367 2.25282 5.70252
upperneck 23.4581 1.74692 -0.655248
head 8.89579 1.06418 -1.03599
rclavicle 3.97569e-016 8.94531e-015
rhumerus -30.5453 -2.3587 -88.4026
rradius 31.3982
rwrist -12.7294
rhand -15.7779 0.938343
rfingers 7.12502
rthumb 10.4144 -28.7837
lclavicle 3.97569e-016 8.94531e-015
lhumerus -24.1145 -9.43399 87.6736
lradius 41.7013
lwrist 3.28117
lhand -20.4463 14.1372
lfingers 7.12502
lthumb 5.90892 44.0348
rfemur -26.0861 14.7235 21.187
rtibia 33.852
rfoot -23.5267 -25.1578
rtoes -17.0796
lfemur 8.62753 -2.18315 -30.0386
ltibia 35.5138
lfoot -15.1628 6.01878
ltoes -19.6866
71
root 22.7792 14.968 0.697227 283.232 -87.5486 -285.524
lowerback 4.60869 0.711256 -2.80308
upperback 5.1063 0.758704 -1.17144
thorax 2.65364 0.251301 0.344552
lowerneck -9.10327 2.26858 5.72334
upperneck 23.5058 1.81158 -0.858907
head 8.92114 1.07653 -1.10197
rclavicle 4.22417e-016 5.76476e-015
rhumerus -30.5959 -2.64865 -88.1285
rradius 30.9829
rwrist -12.7302
rhand -15.455 0.580506
rfingers 7.12502
rthumb 10.7259 -29.1257
lclavicle 4.22417e-016 5.76476e-015
lhumerus -24.4681 -8.2542 87.4782
lradius 40.0504
lwrist 2.32666
lhand -19.8532 14.7628
lfingers 7.12502
lthumb 6.48149 44.6437
rfemur -25.1283 13.653 22.5327
rtibia 33.5035
rfoot -22.1108 -24.1322
rtoes -16.9673
lfemur 5.47981 -0.807397 -28.2398
ltibia 41.9181
lfoot -12.2096 4.08465
ltoes -21.8966
72
root 22.5418 14.9854 0.687632 284.372 -88.5197 -286.534
lowerback 4.69274 0.749888 -1.6259
upperback 5.01388 0.838255 -0.803663
thorax 2.51662 0.327168 0.0616554
lowerneck -9.13948 2.26511 5.75656
upperneck 23.4992 1.85184 -1.06941
head 8.92835 1.07813 -1.1746
rclavicle 2.83268e-015 7.85199e-015
rhumerus -30.6182 -2.89313 -87.834
rradius 30.6785
rwrist -12.9801
rhand -15.1617 0.210955
rfingers 7.12502
rthumb 11.0088 -29.4804
lclavicle 2.83268e-015 7.85199e-015
lhumerus -24.8057 -7.06532 87.2448
lradius 38.4006
lwrist 1.31384
lhand -19.2466 14.9616
lfingers 7.12502
lthumb 7.06713 44.8236
rfemur -24.0159 12.5464 23.9767
rtibia 32.9578
rfoot -21.0207 -23.1647
rtoes -17.1612
lfemur 1.92324 0.42099 -26.3219
ltibia 48.6559
lfoot -8.75979 2.20588
ltoes -23.0369
73
root 22.3089 15.005 0.675057 296.09 -89.516 -298.187
lowerback 4.87201 0.799158 -0.468828
upperback 4.95807 0.929793 -0.407728
thorax 2.36839 0.40384 -0.183759
lowerneck -9.16811 2.24388 5.80424
upperneck 23.4342 1.86927 -1.28503
head 8.91339 1.07002 -1.25351
rclavicle 1.20513e-015 -2.18663e-015
rhumerus -30.6325 -3.01463 -87.5494
rradius 30.52
rwrist -13.4413
rhand -14.9939 -0.0901415
rfingers 7.12502
rthumb 11.1706 -29.7728
lclavicle 1.20513e-015 -2.18663e-015
lhumerus -25.1385 -5.906 86.9881
lradius 36.8176
lwrist 0.279677
lhand -18.6802 14.8429
lfingers 7.12502
lthumb 7.61388 44.6859
rfemur -22.7267 11.5298 25.4527
rtibia 32.2516
rfoot -20.2586 -22.3772
rtoes -17.4526
lfemur -1.90232 1.39272 -24.4094
ltibia 55.4756
lfoot -5.32651 0.6196
ltoes -22.962
74
root 22.0808 15.0266 0.660265 262.185 -90.5695 -264.316
lowerback 5.13922 0.858321 0.632623
upperback 4.97331 1.03291 -0.00173471
thorax 2.2485 0.480109 -0.389821
lowerneck -9.17374 2.19941 5.8278
upperneck 23.2908 1.85656 -1.47232
head 8.86531 1.04881 -1.32143
rclavicle 1.05542e-014 -4.96962e-017
rhumerus -30.5848 -2.96295 -87.303
rradius 30.4787
rwrist -14.041
rhand -15.0278 -0.219074
rfingers 7.12502
rthumb 11.1379 -29.9035
lclavicle 1.05542e-014 -4.96962e-017
lhumerus -25.4254 -4.78855 86.7116
lradius 35.3192
lwrist -0.738907
lhand -18.1125 14.6944
lfingers 7.12502
lthumb 8.16181 44.5168
rfemur -21.2724 10.696 26.9041
rtibia 31.4455
rfoot -19.7625 -21.7947
rtoes -17.7588
lfemur -5.87583 2.07682 -22.6095
ltibia 62.1445
lfoot -2.49597 -0.454725
ltoes -22.306
75
root 21.8574 15.0502 0.644754 272.785 -91.4852 -275.05
lowerback 5.47369 0.929946 1.63348
upperback 5.064 1.15096 0.375397
thorax 2.17278 0.558285 -0.57071
lowerneck -9.16332 2.14618 5.84215
upperneck 23.0972 1.82938 -1.63277
head 8.79615 1.02291 -1.37976
rclavicle -7.76658e-015 -8.52289e-015
rhumerus -30.4431 -2.75939 -87.112
rradius 30.4937
rwrist -14.6493
rhand -15.2619 -0.1653
rfingers 7.12502
rthumb 10.9122 -29.8618
lclavicle -7.76658e-015 -8.52289e-015
lhumerus -25.649 -3.72282 86.4072
lradius 33.8826
lwrist -1.72555
lhand -17.6777 14.3906
lfingers 7.12502
lthumb 8.58141 44.1962
rfemur -19.6959 10.0585 28.243
rtibia 30.61
rfoot -19.4806 -21.3434
rtoes -18.1515
lfemur -9.91427 2.48381 -21.049
ltibia 68.4834
lfoot -0.718383 -0.85139
ltoes -20.8787
76
root 21.6381 15.0732 0.63063 277.234 -92.2558 -279.723
lowerback 5.83956 1.02225 2.4909
upperback 5.2257 1.29358 0.68021
thorax 2.15668 0.644515 -0.746659
lowerneck -9.12971 2.09803 5.865
upperneck 22.8809 1.80198 -1.76455
head 8.7151 1.00045 -1.4296
rclavicle -1.38528e-014 -1.56543e-014
rhumerus -30.1876 -2.48411 -86.9767
rradius 30.498
rwrist -15.1309
rhand -15.5968 -0.0518225
rfingers 7.12502
rthumb 10.5891 -29.765
lclavicle -1.38528e-014 -1.56543e-014
lhumerus -25.8097 -2.69812 86.0603
lradius 32.4683
lwrist -2.70419
lhand -17.4052 14.1038
lfingers 7.12502
lthumb 8.84432 43.8984
rfemur -18.049 9.57513 29.3792
rtibia 29.8163
rfoot -19.3503 -20.9398
rtoes -18.5157
lfemur -13.8999 2.68052 -19.8453
ltibia 74.353
lfoot -0.0883536 -0.564664
ltoes -19.4768
77
root 21.4221 15.0956 0.619028 281.465 -92.8319 -284.225
lowerback 6.19121 1.13101 3.17431
upperback 5.43396 1.45347 0.888527
thorax 2.19939 0.736531 -0.924624
lowerneck -9.06833 2.05698 5.89707
upperneck 22.6799 1.77425 -1.86273
head 8.63438 0.981581 -1.46978
rclavicle -2.33448e-014 -4.47266e-015
rhumerus -29.8179 -2.23781 -86.8779
rradius 30.4549
rwrist -15.4071
rhand -15.9149 0.022099
rfingers 7.12502
rthumb 10.2822 -29.7066
lclavicle -2.33448e-014 -4.47266e-015
lhumerus -25.9287 -1.67747 85.6603
lradius 31.0641
lwrist -3.69868
lhand -17.3281 13.8517
lfingers 7.12502
lthumb 8.91871 43.6432
rfemur -16.409 9.17687 30.2461
rtibia 29.1097
rfoot -19.3337 -20.5208
rtoes -18.8926
lfemur -17.8114 2.70855 -19.0517
ltibia 79.6838
lfoot -0.349458 0.254174
ltoes -18.0298
78
root 21.2089 15.117 0.610161 286.187 -93.2393 -289.232
lowerback 6.52029 1.25305 3.69795
upperback 5.65362 1.62726 1.00778
thorax 2.26841 0.83359 -1.10521
lowerneck -8.99985 2.03342 5.95501
upperneck 22.5463 1.75849 -1.94321
head 8.5765 0.971735 -1.50761
rclavicle -1.19271e-015 4.67144e-015
rhumerus -29.3867 -2.08471 -86.7886
rradius 30.3854
rwrist -15.4863
rhand -16.118 0.00212255
rfingers 7.12502
rthumb 10.0863 -29.7361
lclavicle -1.19271e-015 4.67144e-015
lhumerus -26.0625 -0.62576 85.2087
lradius 29.6993
lwrist -4.7237
lhand -17.3112 13.76
lfingers 7.12502
lthumb 8.93509 43.5508
rfemur -14.8247 8.79321 30.8515
rtibia 28.5062
rfoot -19.3991 -20.0293
rtoes -19.3598
lfemur -21.6424 2.61012 -18.6255
ltibia 84.4466
lfoot -1.25272 1.36818
ltoes -16.9499
79
root 20.9983 15.1368 0.603561 291.07 -93.5678 -294.415
lowerback 6.86609 1.37712 4.12261
upperback 5.85746 1.80411 1.08049
thorax 2.31314 0.930448 -1.2798
lowerneck -8.92919 2.02869 6.02316
upperneck 22.5017 1.76159 -2.01881
head 8.54967 0.971524 -1.54433
rclavicle 6.63444e-015 3.47873e-015
rhumerus -28.9723 -2.00272 -86.6868
rradius 30.3567
rwrist -15.4561
rhand -16.1862 -0.0790832
rfingers 7.12502
rthumb 10.0205 -29.8205
lclavicle 6.63444e-015 3.47873e-015
lhumerus -26.2701 0.491965 84.7208
lradius 28.4117
lwrist -5.77907
lhand -17.3641 13.6807
lfingers 7.12502
lthumb 8.88399 43.4737
rfemur -13.2809 8.36505 31.2843
rtibia 27.9744
rfoot -19.5003 -19.4584
rtoes -19.9819
lfemur -25.385 2.42424 -18.4284
ltibia 88.6394
lfoot -2.45233 2.50625
ltoes -15.9299
80
root 20.7902 15.1551 0.59852 295.503 -93.8656 -299.163
lowerback 7.24498 1.48767 4.476
upperback 6.03721 1.96503 1.14531
thorax 2.31387 1.01682 -1.42417
lowerneck -8.85774 2.02926 6.07387
upperneck 22.539 1.77389 -2.10579
head 8.55082 0.972562 -1.58179
rclavicle 1.4064e-014 9.54166e-015
rhumerus -28.635 -1.92068 -86.5632
rradius 30.443
rwrist -15.4036
rhand -16.1697 -0.132931
rfingers 7.12502
rthumb 10.0364 -29.8736
lclavicle 1.4064e-014 9.54166e-015
lhumerus -26.574 1.67484 84.2245
lradius 27.2395
lwrist -6.81008
lhand -17.5109 13.532
lfingers 7.12502
lthumb 8.74238 43.3309
rfemur -11.7474 7.87788 31.6042
rtibia 27.4638
rfoot -19.6167 -18.8279
rtoes -20.6794
lfemur -29.0383 2.17048 -18.3569
ltibia 92.2518
lfoot -3.67635 3.44643
ltoes -15.0018
81
root 20.5845 15.1718 0.594048 299.233 -94.1572 -303.218
lowerback 7.67571 1.57937 4.77304
upperback 6.17571 2.10564 1.22364
thorax 2.2408 1.08951 -1.52557
lowerneck -8.7818 2.03854 6.11063
upperneck 22.6404 1.8028 -2.21347
head 8.57367 0.977781 -1.62291
rclavicle -1.73937e-014 1.98785e-015
rhumerus -28.4319 -1.76733 -86.4284
rradius 30.675
rwrist -15.3485
rhand -16.1333 -0.133146
rfingers 7.12502
rthumb 10.0715 -29.8721
lclavicle -1.73937e-014 1.98785e-015
lhumerus -27.0116 2.85419 83.747
lradius 26.2469
lwrist -7.74984
lhand -17.6926 13.3793
lfingers 7.12502
lthumb 8.56704 43.1855
rfemur -10.2107 7.37497 31.8569
rtibia 26.9361
rfoot -19.7271 -18.1762
rtoes -21.3426
lfemur -32.6083 1.88307 -18.3366
ltibia 95.265
lfoot -4.79072 4.09784
ltoes -14.1875
